<?xml version="1.0" encoding="UTF-8"?>
<svg xmlns="http://www.w3.org/2000/svg" viewBox="0 0 508.04 308.93">
  <defs>
    <style>
      .cls-1 {
        stroke-width: .25px;
      }

      .cls-1, .cls-2, .cls-3, .cls-4, .cls-5, .cls-6, .cls-7, .cls-8 {
        stroke-miterlimit: 10;
      }

      .cls-1, .cls-2, .cls-4, .cls-6, .cls-8 {
        stroke: #000;
      }

      .cls-2, .cls-3, .cls-5, .cls-6, .cls-7, .cls-8 {
        stroke-width: .75px;
      }

      .cls-2, .cls-5 {
        fill: none;
      }

      .cls-3, .cls-5, .cls-7 {
        stroke: #fff;
      }

      .cls-9, .cls-7, .cls-8 {
        fill: #fff;
      }
    </style>
  </defs>
  <g id="Capa_4" data-name="Capa 4">
    <ellipse cx="254.02" cy="175.04" rx="254.02" ry="133.89"/>
  </g>
  <g id="Capa_1" data-name="Capa 1">
    <path class="cls-9" d="M132.85,68.49l-80.07,77.89-1.25,41.46,1.85.33s-8.92,11.76,2.86,18.35l3.68-.45,1.33.69,2.39.7,2.75-.25s2.36-1.95,2.42-2.05,1.25-3.34,1.25-3.34l.31-3.76,1.97-.22,16.04,2.89-.05,4.08,6.2.24.55-3.25.68,2.46-.67,5.71s.37,3.55.4,3.71.78,2.52.88,2.72.75,2.07.9,2.22,2.78,1.87,3.03,2.2,3.49.43,3.49.43l2.25-1.87,2.41-2.44,2.27-3.28.25,3.28-1.32,2.49-4.01,2.47-1.84,1.01,2.74.91,2.82.33,3.67-.89,2.06,2.88,2.97,1.22,3.34-.71,2.42-2.02,1.96-2.05,1.63-3.46,1.59-5.01.13-1.68.69,1.45-.25,2.39s-.28,2.03-.28,2.28-.86,2.88-.86,2.88c0,0-1.26,1.69-1.49,2.01s-1.44,2.44-1.44,2.44l-2.02,1.46-2.11.85,12.56,2.12,3.84-6.34,1.95-5.51.12,3.46-.72,2.83-1.4,2.77-1.6,2.34,3.73,1.42,2.88.51,3.39-.19,3.47-1.49,2.47-2.41,1.4-2,1.1-2.23.82-2.29,31.48,3.78,2.85-.51,2.87-.65,1.92-1.01,2.48-.93,2.17-1.57,1.57-1.52,1.1-1.62.99-2.18.36-1.04,1.28.1,36.04,2.78v1.58l2.6.29s-3.31,24.17-8.32,29.18l19.2,1.18,4.41-6.06s2.22,19.49,10.16,27.01c0,0,3.57,10.72,29.66,15.49s48.27-6.27,48.27-6.27c0,0,12.97-6.77,17.43-14.79,0,0,7.69-12.19,7.39-19.22l18.61,5.12-1.1,15.54,5.28,2.52,53.66-13.21.94-12.27,19.01-8.63,1.21-26.97-7.28-.13.81-11.51s6.8-16.11-13.15-17.54l1.28-47.29-.69-2.59-1.33-1.96-14.97-12.44.29-3.15-.71-1.35-2.18-1.51-1.55.03-2.2.19-1.54,1.81v.74s-16.97-5.73-16.97-5.73l-2.55-.62-2.19.04-2.27.55-2.87.44-6.44.98-67.32,10.3-17.39-11.83.21-2.24,1.51-1.72.09-1.74-.73-1.2-1.48-.26-1.82.58-.09,1.82.81,1.69.18,1.1-12.59-7.58.61-10.73-2.34-1.6-1.98-.24-2.67.38-1.31,1.06-.67,9.27-17.9-3.64-.03-1.11,2.57-2.14,1.11-2.76-.12-2.69-.93-2.51-.6-.79-1.83-1.29h-1.98s-1.49,1.1-1.49,1.1l-1.05,2.2-.65,2.96.1,1.81.8,1.57,1.05,1.61,1.22.84.13.88-18.27-3.67-19.35,5.02-7.55-1.79v-1.45l-7.31-2.73-2.53,2.06-12.87-3.45,1.88-30.73-2.33-1.51-2.32.04-2.94-.04-.96,1.06-1.89,29.17-56.48-12.89Z"/>
  </g>
  <g id="logo">
    <polygon class="cls-4" points="130.75 73.26 127.49 157.76 121.03 159.96 121.33 167.09 53.92 182.13 54.83 146.43 130.75 73.26"/>
    <polygon class="cls-4" points="123.09 168.78 53.92 183.64 53.92 186.98 127.44 177.48 153.93 181.22 154.54 162.11 128.04 159.58 122.99 161.2 123.09 168.78"/>
    <polygon class="cls-4" points="134.36 71.14 129.93 157.96 154.54 160.79 156.83 113.06 187.11 100.06 188.29 83.14 134.36 71.14"/>
    <ellipse class="cls-4" cx="53.51" cy="196.85" rx=".73" ry="3.31"/>
    <ellipse class="cls-4" cx="60.11" cy="197.43" rx=".73" ry="3.31"/>
    <path class="cls-1" d="M57.27,190.25s-2.07,1.52-1.82,9.35,3.92,7.58,3.92,7.58c0,0,4.17.96,4.88-7.84s-1.62-9.1-1.62-9.1c0,0,.54,2.69.56,4.6l-.09,5.26c0,.48-.07.96-.18,1.43-.37,1.48-1.39,4.52-3.54,4.64-2.49.13-2.66-9.86-2.66-12.41,0-.37.04-.74.13-1.1.21-.89.61-2.6.43-2.42Z"/>
    <path class="cls-2" d="M60.84,206.58s7.39,4.15,9.21-4.75c0,0,.39-1.83.23-3.34-.05-.52.41-.94.92-.84l16.85,3.1v4.07l6.47.25s1.68-10.17,1.82-9.35c0,0-.85,8.73-1.17,12.18-.01.12-1.06,8.85,4.45,12.44s11.22-6.88,11.22-6.88c0,0,2.07,6.22-7.38,9.3,0,0,5.46,2.78,9.56.51,0,0,2.78,7.58,10.47,2.17,0,0,5.11-4.9,5.56-11.98s.76-6.93.76-6.93v7.37c0,.81-.08,1.61-.25,2.39-.46,2.17-1.58,6.44-3.54,8.29,0,0-1.87,2.98-5.01,3.59l12.89,2.17s2.41-3.21,3.99-6.67c1.47-3.23,2.12-6.78,1.92-5.47,0,0,1.26,6.27-3.94,11.58,0,0,8.7,4.9,14.56-.35,0,0,3.99-3.54,4.7-8.24l27.4,3.39s10.63,1.84,17.59-5.22c0,0,1.72-1.35,2.99-5.4l37.31,2.88.2,1.57,2.39.3s-2.04,20.12-8.45,29.36l19.55,1.01,4.18-6.07s1.01,32.36,31.21,40.65,56.36-4.18,56.36-4.18c0,0,22.38-9.44,25.35-34.25l18.61,5.12-.81,15.91,4.99,2.16,53.66-13.21.94-12.27,19.01-8.63,1.21-26.97-7.28-.13.81-11.51s5.36-11-6.32-16.47c-.72-.34-1.49-.56-2.29-.63l-4.54-.44,1.28-47.29s.8-4.09-8.9-10.29c-.13-.08-.26-.17-.37-.27l-7.71-6.43s2.12-4.96-3.24-5.87-4.65,2.63-4.65,2.63l-17.39-5.87s-3.03-1.21-5.87,0l-77.36,11.83-17.39-11.83.21-2.24s2.15-1.11,1.6-3.46c-.34-1.48-2.14-2.29-3.43-1.48-.94.59-1.43,1.84.36,4.51l-.07.71-.13.68-1.36-1-11.09-7.25.81-10.35s-.78-2.26-4.52-2.22-3.98,1.45-3.98,1.45l-.67,9.27-17.9-3.64-.03-1.11s3.71-1.58,3.74-5.76c.02-2.13-.73-3.8-1.46-4.92-.69-1.05-1.87-1.66-3.12-1.66h0c-.76,0-1.5.26-2.05.79-.81.79-1.73,2.3-1.76,5.1l.09,1.82c.07,1.36.57,2.69,1.52,3.68.36.37.77.68,1.22.84l.13.88-16.92-3.4s-1.11-.64-3,.07-17.7,4.69-17.7,4.69l-7.55-1.79v-1.45l-7.31-2.73-2.53,2.06-12.81-3.17,1.82-31.01s-1.49-1.64-3.62-1.34c0,0-3.62-.76-4.93.88l-1.89,29.17-56.48-12.89-80.07,77.89-1.25,41.46h1.25l.59.33s-2.93,1.14-3.26,7.84c-.12,2.37.02,4.16.24,5.49.41,2.47,2.33,4.49,4.8,4.91.86.15,1.83.17,2.86-.05"/>
    <path class="cls-6" d="M104.16,195.41c-.59-.81-1.74-.94-2.49-.28-1.43,1.28-3.4,4.06-3.56,9.79-.25,9.1,1.87,10.47,1.87,10.47,0,0,3.69,2.68,5.97-4.96,0,0,1.47-4.8,1.01-8.7-.29-2.5-1.78-4.92-2.8-6.33Z"/>
    <path class="cls-6" d="M120.15,196.37s-5.46,1.62-5.81,11.88v5.61s-.35,5.01,3.69,6.78c3.61,1.58,6.14-7.09,6.64-8.96.06-.23.09-.45.11-.68l.39-7.75s.05-7.69-5.01-6.88Z"/>
    <path class="cls-1" d="M108.79,189.93s3.57,7.15,3.03,13.08h.34l.37-2.39v-4.15s-.84-5.36-3.17-6.98-.57.44-.57.44Z"/>
    <path class="cls-1" d="M110.04,185.85h3.47s4.38.54,5.66,3.02-2.97-.93-2.97-.93c0,0-.44-.66-3.3-.96l-2.7-.19s-1.11-.24-.17-.94Z"/>
    <path class="cls-1" d="M120.12,188.31s2.53-2.06,5.39-.27c0,0,.17.78-1.45.27s-2.27.17-2.27.17c0,0-1.78,1.62-1.68-.17Z"/>
    <path class="cls-6" d="M112.75,182.39s13.45-.96,14.97,8.85c.38,2.43.14,4.13-.43,5.3h11.7s.25-2.57,3.19-5.55l11.58.4.2-4.08s.51-2.25-5.56-3.21-35.87-2.68-35.87-2.68l.22.96Z"/>
    <path class="cls-6" d="M157.91,193.9c.22-.16-14.16,0-14.16,0,0,0-7.62,8.29,0,18.74l11.87,1.69s-9.91-11.53,2.29-20.43Z"/>
    <path class="cls-6" d="M174.07,195.1c.22-.16-14.16,0-14.16,0,0,0-7.62,8.29,0,18.74l11.87,1.69s-9.91-11.53,2.29-20.43Z"/>
    <path class="cls-6" d="M155.99,181.43l24.13-1.42-1.89-1.89,3.37-63.91s2.29-1.89,5.26-2.02l.39-10.04-27.99,11.96-3.27,67.31Z"/>
    <path class="cls-6" d="M183.14,181.45c.87.17,6.13,1.13,7.48.05.04-.03.09-.01.09.03.06,1.36.38,15.55-13.67,19.38-.06.02-.11-.05-.07-.09,1.17-1.37,10.23-12.37,6.11-19.28-.03-.04,0-.09.06-.08Z"/>
    <path class="cls-6" d="M188.88,111.53s4.15-.61,5.26,0,3.74-58.65,3.74-58.65c0,0-1.92-1.11-4.96-.51l-4.04,59.16Z"/>
    <polygon class="cls-6" points="197.88 85.09 209.44 87.87 207.11 89.84 207.11 96.11 203.66 96.87 203.27 104.25 196.7 101.45 197.88 85.09"/>
    <path class="cls-6" d="M196.34,102.84l-.3,9.71s3.24.56,3.69,2.63-3.69,63.79-3.69,63.79h2.43l4.6-73.35-6.72-2.78Z"/>
    <path class="cls-6" d="M218.66,91.8l.2-3.08-4.9-2.22-5.11,4.1.2,21.64,4.25,2.63,4.75-1.06v-1.92s-5.06-.86-5.06-1.16.86-20.53.86-20.53l4.8,1.62Z"/>
    <path class="cls-6" d="M215.37,92.15l3.49,1.37-.56,16.99s-3.29-.35-3.29-.91.35-17.44.35-17.44Z"/>
    <path class="cls-6" d="M220.48,90.23v2.47c0,.21.2.36.4.3l4.61-1.33-5.01-1.44Z"/>
    <path class="cls-6" d="M220.48,94.12l-.24,4.25c0,.13.11.23.23.2l3.55-.66-3.54-3.79Z"/>
    <polygon class="cls-2" points="220.22 99.38 219.77 110.5 220.22 110.5 220.73 99.38 220.22 99.38"/>
    <polygon class="cls-2" points="219.52 111.54 219.52 114.38 213.6 116.52 210.36 114.85 210.01 115.36 213.3 117.23 219.77 115.06 219.52 111.54"/>
    <path class="cls-6" d="M203.41,188.09c0,.27-.34,17.46-.34,17.46l-20.42,5.06,20.76-22.52Z"/>
    <polygon class="cls-6" points="203.41 206.63 226.67 208.52 221.95 213.57 186.55 211.01 203.41 206.63"/>
    <polygon class="cls-6" points="205.09 186 204.69 205.55 227.61 207.31 247.7 186 205.09 186"/>
    <path class="cls-6" d="M246.62,189.31l-23.39,24.61,17.6,1.21s.81-16.72,5.8-25.82Z"/>
    <path class="cls-6" d="M249.28,214.33h11.06s-4.58,22.74-2.43,25.31l-4.58,7.15h-15.64s9.17-19.96,7.82-28.58c0,0,3.51-.59,3.78-3.87Z"/>
    <path class="cls-6" d="M206.56,97.62h-.43c-.3,0-.55.23-.57.53l-5.49,82.68c-.02.33.25.61.58.61l50.29-1.4c.21,0,.66-.12.76-.3,1.33-2.56,12.11-20.84,37.52-26.29,26.72-5.74,45.41,8.09,46.19,8.68.02.01.03.02.05.04.83.48,20.28,11.91,28.27,39.71.07.24.3.42.55.41l30.59-.49c.3,0,.54-.24.56-.54l2.3-51.29,1.89-39.45s.24-3.08,1.52-4.09-4.45.44-4.83.53c-.02,0-.03,0-.04,0l-140.96,22.24c-.25.04-.44.24-.47.49-.15,1.04-.88,3.81-4.29,5.56-.19.1-.32.29-.32.51l.12,7.97c0,.23.14.43.35.52l5.29,2.14c.22.09.36.3.35.54l-.05,2.91c0,.41-.44.68-.81.5l-4.2-2c-.37-.18-.81.09-.81.51l-.12,9.02c0,.24.15.46.38.54l5.36,1.89c.23.08.38.3.38.55l-.05,2.91c0,.39-.39.66-.76.52l-4.84-1.75c-.37-.13-.75.13-.76.52l-.12,6.59c0,.06-.01.12-.03.18-.29.75-2.69,5.87-14.26,5.37s-13.34-5.3-13.53-5.99c-.02-.05-.02-.11-.02-.16l1.06-33.6c0-.22-.11-.42-.3-.52-.85-.44-3.16-1.74-3.55-3.12-.09-.3-.35-.51-.66-.46l-9.62,1.72c-.35.06-.68-.21-.67-.57l.48-18.13c0-.16-.06-.31-.17-.42l-1.17-1.15c-.11-.1-.17-.25-.17-.4l-.21-14.21c0-.31-.26-.56-.57-.56Z"/>
    <path class="cls-6" d="M247.7,170.19s-10.2,8.63-23.48-.27c0,0,11.36-7.82,23.48.27Z"/>
    <path class="cls-6" d="M224.22,161.09l-.47,7.08s14.9-8.38,24.61.66l.27-7.74s-10.79-8.09-24.4,0Z"/>
    <path class="cls-6" d="M224.69,148.24l-.47,7.08s14.9-8.38,24.61.66l.27-7.74s-10.79-8.09-24.4,0Z"/>
    <path class="cls-6" d="M224.69,135.9l-.47,7.08s14.9-8.38,24.61.66l.27-7.74s-10.79-8.09-24.4,0Z"/>
    <path class="cls-6" d="M227.37,131.22v-2.9s-.81-1.08-1.96,0v4.38l1.96-1.48Z"/>
    <path class="cls-6" d="M236.19,129.95c.39.07,2.41.34,2.41.34v-3.51s-.71-3.1-2.41-.74v3.91Z"/>
    <path class="cls-6" d="M246.35,132.04l1.82,1.15.46-2.9s-.05-2.83-1.94-1.28l-.34,3.03Z"/>
    <path class="cls-6" d="M224.17,133.11s-5.76-2.83.05-7.41c0,0,2.65-2.9,16.53-2.36,0,0,9.3.93,10.52,4.98s-2.06,5.3-2.06,5.3l.31.84s4.25-.67,4.18-5.6c0,0,.74-6.88-12-8.22,0,0-6-.81-11.39,0,0,0-6.58.58-9.83,5.13-.15.21-.57,2.22-.56,2.48l.13,1.38c0,.45.39.89.61,1.28.54.99.97,2.47,2.35,2.86.75.21,1.22.19,1.21-.03,0-.33-.05-.64-.05-.64Z"/>
    <path class="cls-6" d="M242.48,216.55s-1.75-27.1,20.9-48.27,56.04-11.37,56.04-11.37c0,0,31.73,9.93,39.55,45.37h-19.69s-7.55-37.65-43.55-35.76-44.76,30.88-44.76,30.88c0,0-4.4,9.69-3.28,16.17,0,0-1.31,5.54-5.22,2.97Z"/>
    <path class="cls-6" d="M356.69,206.57h15.25v36.4l-14.04-3.78s2.7-25.35-1.21-32.63Z"/>
    <path class="cls-6" d="M331.88,196.65s-14.16-13.68-35.46-12.19c0,0-16.31,2.16-31.15,20.22,0,0,8.63-18.61,31.01-23.06,0,0,19.96-4.6,35.6,15.03Z"/>
    <path class="cls-6" d="M339.43,207.92s6.39,30.48-2.13,45.34c-.63,1.1-1.26,2.2-1.77,3.36-2.03,4.65-9.99,18.69-34.8,27.47,0,0,28.18-2.02,39.78-27.78,0,0,11.33-22.58-1.08-48.4Z"/>
    <polygon class="cls-6" points="221.08 110.74 221.08 112.56 239.89 116.81 240.14 115.44 226.39 98.17 224.88 98.92 236.81 114.38 221.08 110.74"/>
    <polygon class="cls-6" points="224.45 95.42 225.48 97.62 227.82 96.9 224.45 95.42"/>
    <path class="cls-6" d="M224.45,93.01l6.54,3.34,7.01-1.67s2.92-1.15,2.97,2.16c.03,2.21,0,2.97,0,2.97l4.11,1.65v1.12l-4.38-1.12.13,13.4,4.1,1.82-.3.96-3.97-.83-.03,2.62s11.16-.19,14.34,8.41l10.97-1.61s-18.47-1.77-17.33-10.62l.19-20.19s-.51-4.33,6.78-1.9l39.08,6.62,26.09,17.29,2.83-.61-30.13-20.07-45.3-9.1-23.71,5.36"/>
    <polygon class="cls-6" points="240.14 99.71 232.19 96.77 230.92 97.62 239.67 100.67 240.14 99.71"/>
    <path class="cls-6" d="M268.12,124.98l.71-.2c.63-.18.84-.96.39-1.44l-11.22-11.82c-.09-.1-.24.03-.17.14l9.34,13c.21.3.59.43.95.33Z"/>
    <path class="cls-6" d="M291.19,120.91c.37-3.57,1.65-15.21,2.06-18.84,0-.09.14-.08.14.01l.32,18.72c0,.43-.3.79-.72.86l-.86.13c-.53.08-.99-.36-.93-.89Z"/>
    <polygon class="cls-6" points="299.64 120.39 296.5 114.77 300.85 119.98 299.64 120.39"/>
    <path class="cls-6" d="M179.9,176.97s9.37-3.57,14.22.54c0,0,.89,2.97-6.36,2.76-7.25-.2-7.86-3.3-7.86-3.3Z"/>
    <path class="cls-6" d="M182.31,176.43l-.13-2.12s-1.34.03-1.77.51-.18-3.56-.18-3.56l2.2-.46v-1.74l-1.92.2.03-3.64,2.17-.3v-1.69h-1.57l-.28-3.34s2.38-.25,2.38-.33v-2.38l-2.17.68-.18-3.54,2.91-.28-.25-1.97-2.2.3v-3.46l2.63-.15v-2.25l-2.15.25-.05-3.34,2.55-.33v-2.35l-2.33.51-.05-3.34h2.6v-2.15l-2.48.61.2-3.56,2.83-.43-.28-1.69h-2.12l.1-3.13,2.53-.43.15-2.17-2.45.25v-2.86l2.45-.86.13-2.15-2.35.48.2-5.26s8.87-3.62,14.64.35v5.84l-2.68-1.06-.1,1.97,2.55,1.16-.27,3.26-2.53-.71-.2,1.54,2.4,1.29-.03,3.56-2.5-.91-.13,1.97,2.38.73-.15,3.64-2.55-.91-.08,1.97,2.35.99-.13,3.69-2.63-1.06.08,1.92,2.63,1.31-.61,3.46-2.17-1.09-.08,2.05,2.22.99-.25,3.03-2.68-.53-.03,2.02,2.4.78v3.19s-2.55-.91-2.58-.83-.18,1.85-.18,1.85l2.43,1.19.1,2.98-2.76-.78v1.95l2.33,1.14-.03,3.11-2.45-.88-.25,2.02,2.68.86-.35,3.29-2.22-.78-.23,1.37-1.26-.34.2-1.53-3.16-.25.03,1.52-1.21.03.03-1.52-3.34.25.13,1.5-.91.9Z"/>
    <polygon class="cls-8" points="183.72 168.47 183.82 170.72 187.11 170.52 187.01 168.47 183.72 168.47"/>
    <polygon class="cls-8" points="188.05 168.47 188.15 170.72 191.43 170.52 191.33 168.47 188.05 168.47"/>
    <polygon class="cls-8" points="183.95 162.98 184.05 165.23 187.34 165.03 187.24 162.98 183.95 162.98"/>
    <polygon class="cls-8" points="188.25 163.11 188.35 165.36 191.64 165.16 191.53 163.11 188.25 163.11"/>
    <polygon class="cls-8" points="184.51 157.6 184.61 159.85 187.89 159.65 187.79 157.6 184.51 157.6"/>
    <polygon class="cls-8" points="188.93 157.75 189.03 160 192.32 159.8 192.22 157.75 188.93 157.75"/>
    <polygon class="cls-8" points="184.51 152.21 184.61 154.46 187.89 154.26 187.79 152.21 184.51 152.21"/>
    <polygon class="cls-8" points="188.93 152.21 189.03 154.46 192.32 154.26 192.22 152.21 188.93 152.21"/>
    <polygon class="cls-8" points="184.89 146.93 184.99 149.18 188.27 148.98 188.17 146.93 184.89 146.93"/>
    <polygon class="cls-8" points="189.53 146.93 189.63 149.18 192.92 148.98 192.81 146.93 189.53 146.93"/>
    <polygon class="cls-8" points="189.69 141.27 189.79 143.52 193.08 143.32 192.97 141.27 189.69 141.27"/>
    <polygon class="cls-8" points="185.42 141.27 185.52 143.52 188.8 143.32 188.7 141.27 185.42 141.27"/>
    <polygon class="cls-8" points="190.78 124.99 190.88 127.24 194.16 127.03 194.06 124.99 190.78 124.99"/>
    <polygon class="cls-8" points="186.33 124.99 186.43 127.24 189.71 127.03 189.61 124.99 186.33 124.99"/>
    <polygon class="cls-8" points="190.27 130.65 190.37 132.9 193.66 132.7 193.56 130.65 190.27 130.65"/>
    <polygon class="cls-8" points="186.06 130.65 186.16 132.9 189.45 132.7 189.35 130.65 186.06 130.65"/>
    <polygon class="cls-8" points="189.69 136.04 189.79 138.29 193.08 138.08 192.97 136.04 189.69 136.04"/>
    <polygon class="cls-8" points="185.54 135.96 185.64 138.21 188.93 138.01 188.83 135.96 185.54 135.96"/>
    <polygon class="cls-8" points="190.98 119.45 191.08 121.7 194.37 121.5 194.26 119.45 190.98 119.45"/>
    <polygon class="cls-8" points="186.88 119.45 186.98 121.7 190.27 121.5 190.17 119.45 186.88 119.45"/>
    <ellipse class="cls-6" cx="267.2" cy="82.7" rx="1.55" ry="4.18"/>
    <ellipse class="cls-6" cx="307.24" cy="100.03" rx=".67" ry="1.21"/>
    <path class="cls-6" d="M287.36,93.69c0-.4.81-8.9.81-8.9,0,0,3.57-.81,4.58.34l-.31,9.78-5.09-1.21Z"/>
    <path class="cls-6" d="M374.02,206.57v36.4l16.96,5.7,57.47-7.15,17.12-8.49.94-23.73h-12.13s-1.21,4.85-6.61,4.18l-44.9-.94s-5.26,1-4.99-4.62v-1.98l-23.87.64Z"/>
    <polygon class="cls-6" points="446.05 243.26 396.6 249.29 395.69 265.91 445.85 253.32 446.05 243.26"/>
    <path class="cls-7" d="M398.1,224.78s5.33.3,6,8.12-7.8,9.57-7.8,9.57c0,0-5.75-.88-5.82-9.44s7.62-8.25,7.62-8.25Z"/>
    <path class="cls-7" d="M455.93,224.26s2.7.76,2.49,4.49-3.98,4.57-3.98,4.57c0,0-4.11.34-3.84-4.53s5.33-4.53,5.33-4.53Z"/>
    <ellipse class="cls-6" cx="454.98" cy="190.89" rx="2.25" ry="4.65"/>
    <ellipse class="cls-6" cx="460.92" cy="191.55" rx="1.21" ry="3.49"/>
    <path class="cls-6" d="M460.42,183.95c-1.02-1.65-3.84-4.77-10.41-4.34-.35.02-.63.32-.64.67l-.64,21.99,1.06.04v2.33h4.73v2.63h5.58l.19-9.63c0-.41-.36-.73-.76-.67l-6.4.99s-1.92.4-1.72-2.93v-8.8s-.61-3.44,2.63-2.63c2.18.54,4.54.95,5.85,1.16.46.07.77-.42.53-.82Z"/>
    <path class="cls-2" d="M401.31,202.28l3.78-90.37s-.34-3.02,3.05-4.04"/>
    <circle class="cls-6" cx="398.44" cy="193.07" r=".36"/>
    <circle class="cls-6" cx="399.15" cy="176.28" r=".36"/>
    <circle class="cls-6" cx="399.86" cy="159.79" r=".36"/>
    <circle class="cls-6" cx="400.57" cy="144.22" r=".36"/>
    <circle class="cls-6" cx="401.31" cy="126.68" r=".36"/>
    <polygon class="cls-6" points="445.51 201.21 445.51 197.16 440.25 197.16 439.85 201.21 445.51 201.21"/>
    <polygon class="cls-6" points="446.05 195.54 446.05 190.89 440.25 190.39 440.25 195.54 446.05 195.54"/>
    <polygon class="cls-6" points="446.05 189.07 446.05 184.82 440.25 184.32 440.25 189.07 446.05 189.07"/>
    <polygon class="cls-6" points="446.05 183.51 446.05 179.06 440.76 178.75 440.76 182.9 446.05 183.51"/>
    <polygon class="cls-6" points="446.05 177.54 446.05 173.8 440.76 172.89 440.76 177.14 446.05 177.54"/>
    <polygon class="cls-6" points="441.47 167.03 441.47 171.48 446.05 172.22 446.05 167.73 441.47 167.03"/>
    <polygon class="cls-6" points="441.47 161.06 441.47 165.41 446.05 166.02 446.52 162.37 441.47 161.06"/>
    <polygon class="cls-6" points="441.87 155.07 441.87 159.54 445.71 160.33 446.37 156.41 441.87 155.07"/>
    <polygon class="cls-6" points="442 150.54 442 153.63 446.17 154.46 446.52 151.48 442 150.54"/>
    <path class="cls-6" d="M442,145.36c.03.1,0,3.26,0,3.26l4.85,1.01.2-3.13-5.06-1.14Z"/>
    <path class="cls-6" d="M442.15,140.96v2.55l4.65,1.59.25-2.45-4.9-1.69Z"/>
    <polygon class="cls-6" points="442.48 136.56 442.35 139.24 446.8 140.68 447.26 138.62 442.48 136.56"/>
    <path class="cls-6" d="M433.12,132.21v3.64l6.78,2.65.33-3.15-7.1-3.15Z"/>
    <polygon class="cls-6" points="432.97 137.4 432.97 140.96 439.77 143.03 439.95 139.82 432.97 137.4"/>
    <polygon class="cls-6" points="422.31 127.03 421.91 132.21 430.94 135.36 430.94 131.2 422.31 127.03"/>
    <polygon class="cls-6" points="419.55 126.32 419.55 131.2 407.41 126.68 407.41 120.73 419.55 126.32"/>
    <polygon class="cls-6" points="419.55 132.73 419.55 136.91 407.41 133.4 407.41 128.75 419.55 132.73"/>
    <polygon class="cls-6" points="421.91 133.67 421.91 137.99 430.6 140.22 430.6 136.56 421.91 133.67"/>
    <polygon class="cls-6" points="419.55 138.51 419.55 143.03 406.54 140.22 406.54 135.36 419.55 138.51"/>
    <polygon class="cls-6" points="421.91 139.47 421.91 143.58 429.93 145.36 429.93 141.96 421.91 139.47"/>
    <polygon class="cls-6" points="432.97 142.42 432.97 146.35 439.64 147.5 439.64 144.58 432.97 142.42"/>
    <polygon class="cls-6" points="419.21 144.58 419.21 148.91 406.54 146.08 406.54 142.1 419.21 144.58"/>
    <polygon class="cls-6" points="421.57 145.36 421.37 149.63 430.6 151.2 430.33 147.5 421.57 145.36"/>
    <polygon class="cls-6" points="432.69 148.28 432.69 151.2 439.17 152.5 439.17 149.63 432.69 148.28"/>
    <polygon class="cls-6" points="418.67 150.39 418.67 155.07 406.54 152.73 406.54 148.28 418.67 150.39"/>
    <polygon class="cls-6" points="421.37 151.2 421.37 155.85 429.93 157.34 429.93 152.95 421.37 151.2"/>
    <polygon class="cls-6" points="432.69 153.83 432.69 157.7 438.9 159.09 439.17 155.07 432.69 153.83"/>
    <polygon class="cls-6" points="406.13 154.65 406.13 159.79 418.67 161.85 418.67 156.86 406.13 154.65"/>
    <polygon class="cls-6" points="406.13 161.18 406.13 166.1 417.79 167.72 418.27 163.2 406.13 161.18"/>
    <path class="cls-6" d="M405.73,167.72c.2.54,0,5.17,0,5.17l12.54,1.16.4-4.6-12.94-1.73Z"/>
    <polygon class="cls-6" points="405.32 174.05 405.32 178.75 418.27 180.19 418.67 175.93 405.32 174.05"/>
    <polygon class="cls-6" points="404.73 180.59 404.73 185.78 418.27 186.53 418.27 181.67 404.73 180.59"/>
    <path class="cls-6" d="M404.73,187.4c.12.34,0,5.31,0,5.31l13.54.71v-5.01l-13.54-1.01Z"/>
    <path class="cls-6" d="M420.36,193.87c.34,0,8.7.74,8.7.74v-5.54l-8.7-.72v5.53Z"/>
    <polygon class="cls-6" points="421.03 186.7 429.05 187.4 429.05 182.95 421.03 182.14 421.03 186.7"/>
    <polygon class="cls-6" points="420.76 175.93 420.76 180.59 429.05 181.13 429.05 177.54 420.76 175.93"/>
    <polygon class="cls-6" points="420.76 169.87 420.76 174.05 429.93 175.22 429.93 170.89 420.76 169.87"/>
    <path class="cls-6" d="M421.03,163.87c.2.27,0,4.45,0,4.45l8.36.74v-3.91l-8.36-1.28Z"/>
    <polygon class="cls-6" points="421.03 157.34 421.37 162.26 429.73 163.54 429.73 158.82 421.03 157.34"/>
    <polygon class="cls-6" points="432.69 159.79 432.69 163.87 439.17 164.64 439.17 161.18 432.69 159.79"/>
    <path class="cls-6" d="M432.42,166.02c-.07.35,0,3.86,0,3.86l6.34.61v-3.46l-6.34-1.01Z"/>
    <polygon class="cls-6" points="431.95 171.7 431.95 176.28 438.76 176.64 438.76 172.89 431.95 171.7"/>
    <polygon class="cls-6" points="431.95 177.9 431.95 181.74 438.49 182.14 438.76 178.53 431.95 177.9"/>
    <polygon class="cls-6" points="431.61 183.56 431.61 188.35 438.76 188.35 438.76 183.9 431.61 183.56"/>
    <path class="cls-6" d="M431.61,189.7v5.33l7.15.52-.4-5.58-6.74-.27Z"/>
    <polygon class="cls-6" points="430.81 196.71 431.21 200.82 438.09 201.21 438.09 196.71 430.81 196.71"/>
    <polygon class="cls-6" points="420.36 195.54 420.36 199.87 428.65 200.14 428.65 196.03 420.36 195.54"/>
    <path class="cls-6" d="M418.27,195.02l-13.54-.81-.28,8.06h2.22s-1.15-3.36,3.44-3.32,7.75.23,7.75.23l.4-4.16Z"/>
    <path class="cls-6" d="M432.97,130.17c-.03-.4.48-12.54.48-12.54l13.8,12.13v7.43l-5.26-2.63s.91-3.19-2.05-3.74-2,2.01-2,2.01l-4.98-2.66Z"/>
    <path class="cls-6" d="M431.43,116.01l-.49,13.45-8.92-3.84s1.15-3.05-1.74-4.26-3.2,1.94-3.2,1.94l-9.37-3.94,1.21-10.67,22.5,7.33Z"/>
    <path class="cls-6" d="M281.84,207.92s-7,2.87-10.85,20.26,6.67,28.84,6.67,28.84c0,0,10.64,14.13,28.93,4.43,0,0,19.2-12.54,12.63-38.22-5.6-21.88-23.53-20.2-28.72-19.23-.91.17-1.8.45-2.65.8-1.34.56-3.61,1.6-6.02,3.12Z"/>
  </g>
  <g id="sombras">
    <path class="cls-7" d="M104.09,199.82c-.15-.51-.86-.57-1.14-.12-.71,1.17-2.1,3.16-2.14,5.58-.05,3.59,0,4.5,0,4.5,0,0,0,1.57.76,2.38s2.22-5.61,2.22-5.61c0,0,.99-4.38.29-6.72Z"/>
    <path class="cls-7" d="M120.48,200.48c-.85,1.29-2.02,3.49-2.66,6.58-.09.43-.13.88-.13,1.32v3.95c0,.35.03.7.09,1.05.32,1.78,1.45,6.81,2.94.4,1.25-5.37,1.14-10.45.97-12.99-.04-.63-.86-.85-1.21-.32Z"/>
    <path class="cls-8" d="M371.09,165.27c.2.02,18.81,4.25,18.81,4.25,0,0,2.97.74,2.9,5.73l-.27,9.64s.67,6.54-5.6,6.61-15.84.27-15.84.27c0,0-4.79.61-4.58-5.46l.47-12.54s.36-4.35-6.43-6.61c-.82-.27-1.68-.42-2.55-.46l-11.92-.55s2.76-2.7,25.01-.88Z"/>
    <path class="cls-6" d="M380.8,178.55c0,4.64-2.94,9.51-4.79,9.51s-4.38-5.19-4.04-9.85,3.42-8.76,5.26-8.76,3.57,4.47,3.57,9.1Z"/>
    <path class="cls-6" d="M390.98,180.17c0,3.83-2.48,6.94-3.84,6.94s-3.24-3.11-3.24-6.94,2.18-7.96,3.54-7.96,3.54,4.12,3.54,7.96Z"/>
    <polygon class="cls-8" points="401.74 250.36 401.31 262.6 418.51 258.96 419.01 248.37 401.74 250.36"/>
    <polygon class="cls-6" points="403.69 252.05 403.19 260.65 416.74 257.62 417.14 250.32 403.69 252.05"/>
    <polygon class="cls-8" points="421.48 247.88 420.87 258.09 434.22 255.01 434.58 246.01 421.48 247.88"/>
    <polygon class="cls-6" points="423.14 249.37 423.21 255.5 432.24 253.92 432.31 247.93 423.14 249.37"/>
    <polygon class="cls-8" points="435.59 245.71 435.24 255.01 444.44 252.84 445 244.6 435.59 245.71"/>
    <polygon class="cls-6" points="437.39 247.54 437.45 252.77 442.85 251.99 442.85 246.83 437.39 247.54"/>
    <path class="cls-3" d="M397.23,226.88s-3.98.9-4.18,5.54,2.56,7.35,2.56,7.35c0,0,3.51-.39,4.58-6.44s-2.97-6.44-2.97-6.44Z"/>
    <polygon class="cls-7" points="405.97 215.7 405.97 223.59 414.87 223.05 414.87 215.7 405.97 215.7"/>
    <polygon class="cls-7" points="446.05 216.71 446.05 220.76 451.41 220.28 451.41 216.98 446.05 216.71"/>
    <polygon class="cls-7" points="427.73 232.28 427.73 239.77 435.7 239.09 435.97 232.28 427.73 232.28"/>
    <path class="cls-3" d="M455.41,225.09s2.89,1.24,1.39,5.68c0,0-1.27,2.4-2.89,1.51s-2.08-4.44-2.08-4.44c0,0,.46-2.4,3.58-2.75Z"/>
    <ellipse class="cls-7" cx="287.68" cy="211.68" rx="1.42" ry="1.9"/>
    <path class="cls-7" d="M303.56,210.69c0,1.05-.63,1.9-1.42,1.9-.78,0-1.42-.85-1.42-1.9,0-1.05.63-1.9,1.42-1.9.78,0,1.42.85,1.42,1.9Z"/>
    <ellipse class="cls-7" cx="312.97" cy="220.6" rx="1.42" ry="1.9"/>
    <ellipse class="cls-7" cx="315.8" cy="235.87" rx="1.42" ry="1.9"/>
    <ellipse class="cls-7" cx="311.55" cy="249.22" rx="1.42" ry="1.9"/>
    <ellipse class="cls-7" cx="300.72" cy="258.93" rx="1.42" ry="1.9"/>
    <ellipse class="cls-7" cx="284.25" cy="257.03" rx="1.42" ry="1.9"/>
    <ellipse class="cls-7" cx="276.26" cy="246.01" rx="1.42" ry="1.9"/>
    <ellipse class="cls-7" cx="273.83" cy="232.45" rx="1.42" ry="1.9"/>
    <ellipse class="cls-7" cx="277.67" cy="220.6" rx="1.42" ry="1.9"/>
    <path class="cls-5" d="M290.33,215.08s-8.72,1.98-12.66,14.62,6.42,21.84,6.42,21.84c0,0,9.56,8.7,19.47-.81s6.57-22.85,6.57-22.85c0,0-2.7-12.46-11.56-12.76-8.27-.28-8.24-.05-8.24-.05Z"/>
    <path class="cls-5" d="M290.36,219.66c-7.11,2.88-10.3,12.06-9.13,19.35,2.64,15.67,18.88,17.49,23.7,2.17,3.72-9.68-2.13-25.61-14.43-21.58l-.15.06Z"/>
  </g>
</svg>